<?xml version="1.0" encoding="UTF-8"?>
<!--Generator: Apple Native CoreSVG 175.5-->
<!DOCTYPE svg
PUBLIC "-//W3C//DTD SVG 1.1//EN"
       "http://www.w3.org/Graphics/SVG/1.1/DTD/svg11.dtd">
<svg version="1.1" xmlns="http://www.w3.org/2000/svg" xmlns:xlink="http://www.w3.org/1999/xlink" width="3300" height="2200">
 <!--glyph: "", point size: 100.0, font version: "18.0d12e2", template writer version: "101"-->
 <g id="Notes">
  <rect height="2200" id="artboard" style="fill:white;opacity:1" width="3300" x="0" y="0"/>
  <line style="fill:none;stroke:black;opacity:1;stroke-width:0.5;" x1="263" x2="3036" y1="292" y2="292"/>
  <text style="stroke:none;fill:black;font-family:sans-serif;font-size:13;font-weight:bold;" transform="matrix(1 0 0 1 263 322)">Weight/Scale Variations</text>
  <text style="stroke:none;fill:black;font-family:sans-serif;font-size:13;text-anchor:middle;" transform="matrix(1 0 0 1 559.711 322)">Ultralight</text>
  <text style="stroke:none;fill:black;font-family:sans-serif;font-size:13;text-anchor:middle;" transform="matrix(1 0 0 1 856.422 322)">Thin</text>
  <text style="stroke:none;fill:black;font-family:sans-serif;font-size:13;text-anchor:middle;" transform="matrix(1 0 0 1 1153.13 322)">Light</text>
  <text style="stroke:none;fill:black;font-family:sans-serif;font-size:13;text-anchor:middle;" transform="matrix(1 0 0 1 1449.84 322)">Regular</text>
  <text style="stroke:none;fill:black;font-family:sans-serif;font-size:13;text-anchor:middle;" transform="matrix(1 0 0 1 1746.56 322)">Medium</text>
  <text style="stroke:none;fill:black;font-family:sans-serif;font-size:13;text-anchor:middle;" transform="matrix(1 0 0 1 2043.27 322)">Semibold</text>
  <text style="stroke:none;fill:black;font-family:sans-serif;font-size:13;text-anchor:middle;" transform="matrix(1 0 0 1 2339.98 322)">Bold</text>
  <text style="stroke:none;fill:black;font-family:sans-serif;font-size:13;text-anchor:middle;" transform="matrix(1 0 0 1 2636.69 322)">Heavy</text>
  <text style="stroke:none;fill:black;font-family:sans-serif;font-size:13;text-anchor:middle;" transform="matrix(1 0 0 1 2933.4 322)">Black</text>
  <line style="fill:none;stroke:black;opacity:1;stroke-width:0.5;" x1="263" x2="3036" y1="1903" y2="1903"/>
  <g transform="matrix(1 0 0 1 263 1933)">
   <path d="M9.24805 0.830078C13.5547 0.830078 17.1387-2.74414 17.1387-7.05078C17.1387-11.3574 13.5449-14.9316 9.23828-14.9316C4.94141-14.9316 1.36719-11.3574 1.36719-7.05078C1.36719-2.74414 4.95117 0.830078 9.24805 0.830078ZM9.24805-0.654297C5.70312-0.654297 2.87109-3.49609 2.87109-7.05078C2.87109-10.6055 5.69336-13.4473 9.23828-13.4473C12.793-13.4473 15.6445-10.6055 15.6445-7.05078C15.6445-3.49609 12.8027-0.654297 9.24805-0.654297ZM5.6543-7.05078C5.6543-6.62109 5.95703-6.32812 6.40625-6.32812L8.50586-6.32812L8.50586-4.20898C8.50586-3.76953 8.79883-3.4668 9.22852-3.4668C9.67773-3.4668 9.9707-3.76953 9.9707-4.20898L9.9707-6.32812L12.0898-6.32812C12.5293-6.32812 12.832-6.62109 12.832-7.05078C12.832-7.49023 12.5293-7.79297 12.0898-7.79297L9.9707-7.79297L9.9707-9.90234C9.9707-10.3516 9.67773-10.6543 9.22852-10.6543C8.79883-10.6543 8.50586-10.3516 8.50586-9.90234L8.50586-7.79297L6.40625-7.79297C5.95703-7.79297 5.6543-7.49023 5.6543-7.05078Z"/>
  </g>
  <g transform="matrix(1 0 0 1 281.867 1933)">
   <path d="M11.709 2.91016C17.1582 2.91016 21.6699-1.61133 21.6699-7.05078C21.6699-12.5 17.1484-17.0117 11.6992-17.0117C6.25977-17.0117 1.74805-12.5 1.74805-7.05078C1.74805-1.61133 6.26953 2.91016 11.709 2.91016ZM11.709 1.25C7.09961 1.25 3.41797-2.44141 3.41797-7.05078C3.41797-11.6602 7.08984-15.3516 11.6992-15.3516C16.3086-15.3516 20.0098-11.6602 20.0098-7.05078C20.0098-2.44141 16.3184 1.25 11.709 1.25ZM7.17773-7.05078C7.17773-6.57227 7.50977-6.25 8.00781-6.25L10.8789-6.25L10.8789-3.36914C10.8789-2.88086 11.2109-2.53906 11.6895-2.53906C12.1777-2.53906 12.5195-2.87109 12.5195-3.36914L12.5195-6.25L15.4004-6.25C15.8887-6.25 16.2305-6.57227 16.2305-7.05078C16.2305-7.53906 15.8887-7.88086 15.4004-7.88086L12.5195-7.88086L12.5195-10.752C12.5195-11.25 12.1777-11.5918 11.6895-11.5918C11.2109-11.5918 10.8789-11.25 10.8789-10.752L10.8789-7.88086L8.00781-7.88086C7.50977-7.88086 7.17773-7.53906 7.17773-7.05078Z"/>
  </g>
  <g transform="matrix(1 0 0 1 305.646 1933)">
   <path d="M14.9707 5.66406C21.9336 5.66406 27.6953-0.0976562 27.6953-7.05078C27.6953-14.0137 21.9238-19.7754 14.9609-19.7754C8.00781-19.7754 2.25586-14.0137 2.25586-7.05078C2.25586-0.0976562 8.01758 5.66406 14.9707 5.66406ZM14.9707 3.84766C8.93555 3.84766 4.08203-1.01562 4.08203-7.05078C4.08203-13.0957 8.92578-17.9492 14.9609-17.9492C21.0059-17.9492 25.8691-13.0957 25.8691-7.05078C25.8691-1.01562 21.0156 3.84766 14.9707 3.84766ZM9.19922-7.05078C9.19922-6.5332 9.57031-6.17188 10.1172-6.17188L14.0625-6.17188L14.0625-2.2168C14.0625-1.67969 14.4336-1.29883 14.9512-1.29883C15.4883-1.29883 15.8594-1.66992 15.8594-2.2168L15.8594-6.17188L19.8145-6.17188C20.3516-6.17188 20.7324-6.5332 20.7324-7.05078C20.7324-7.59766 20.3613-7.96875 19.8145-7.96875L15.8594-7.96875L15.8594-11.9141C15.8594-12.4609 15.4883-12.8418 14.9512-12.8418C14.4336-12.8418 14.0625-12.4609 14.0625-11.9141L14.0625-7.96875L10.1172-7.96875C9.57031-7.96875 9.19922-7.59766 9.19922-7.05078Z"/>
  </g>
  <text style="stroke:none;fill:black;font-family:sans-serif;font-size:13;font-weight:bold;" transform="matrix(1 0 0 1 263 1953)">Design Variations</text>
  <text style="stroke:none;fill:black;font-family:sans-serif;font-size:13;" transform="matrix(1 0 0 1 263 1971)">Symbols are supported in up to nine weights and three scales.</text>
  <text style="stroke:none;fill:black;font-family:sans-serif;font-size:13;" transform="matrix(1 0 0 1 263 1989)">For optimal layout with text and other symbols, vertically align</text>
  <text style="stroke:none;fill:black;font-family:sans-serif;font-size:13;" transform="matrix(1 0 0 1 263 2007)">symbols with the adjacent text.</text>
  <line style="fill:none;stroke:#00AEEF;stroke-width:0.5;opacity:1.0;" x1="776" x2="776" y1="1919" y2="1933"/>
  <g transform="matrix(1 0 0 1 776 1933)">
   <path d="M3.31055 0.15625C3.82812 0.15625 4.08203-0.0390625 4.26758-0.585938L5.52734-4.0332L11.2891-4.0332L12.5488-0.585938C12.7344-0.0390625 12.9883 0.15625 13.4961 0.15625C14.0137 0.15625 14.3457-0.15625 14.3457-0.644531C14.3457-0.810547 14.3164-0.966797 14.2383-1.17188L9.6582-13.3691C9.43359-13.9648 9.0332-14.2676 8.4082-14.2676C7.80273-14.2676 7.39258-13.9746 7.17773-13.3789L2.59766-1.16211C2.51953-0.957031 2.49023-0.800781 2.49023-0.634766C2.49023-0.146484 2.80273 0.15625 3.31055 0.15625ZM6.00586-5.51758L8.37891-12.0898L8.42773-12.0898L10.8008-5.51758Z"/>
  </g>
  <line style="fill:none;stroke:#00AEEF;stroke-width:0.5;opacity:1.0;" x1="793.197" x2="793.197" y1="1919" y2="1933"/>
  <text style="stroke:none;fill:black;font-family:sans-serif;font-size:13;font-weight:bold;" transform="matrix(1 0 0 1 776 1953)">Margins</text>
  <text style="stroke:none;fill:black;font-family:sans-serif;font-size:13;" transform="matrix(1 0 0 1 776 1971)">Leading and trailing margins on the left and right side of each symbol</text>
  <text style="stroke:none;fill:black;font-family:sans-serif;font-size:13;" transform="matrix(1 0 0 1 776 1989)">can be adjusted by modifying the x-location of the margin guidelines.</text>
  <text style="stroke:none;fill:black;font-family:sans-serif;font-size:13;" transform="matrix(1 0 0 1 776 2007)">Modifications are automatically applied proportionally to all</text>
  <text style="stroke:none;fill:black;font-family:sans-serif;font-size:13;" transform="matrix(1 0 0 1 776 2025)">scales and weights.</text>
  <g transform="matrix(1 0 0 1 1289 1933)">
   <path d="M2.8418 1.86523L4.54102 3.57422C5.40039 4.44336 6.38672 4.38477 7.31445 3.35938L18.0078-8.42773L17.041-9.4043L6.42578 2.27539C6.07422 2.67578 5.74219 2.77344 5.27344 2.30469L4.10156 1.14258C3.63281 0.683594 3.74023 0.341797 4.14062-0.0195312L15.6152-10.8203L14.6387-11.7871L3.04688-0.898438C2.06055 0.0195312 1.98242 0.996094 2.8418 1.86523ZM9.25781-16.3281C8.83789-15.918 8.80859-15.3418 9.04297-14.9512C9.27734-14.5898 9.73633-14.3555 10.3809-14.5215C11.8457-14.8633 13.3691-14.9219 14.7949-13.9844L14.209-12.5293C13.8672-11.6992 14.043-11.1133 14.5801-10.5664L16.875-8.25195C17.3633-7.76367 17.7734-7.74414 18.3398-7.8418L19.4043-8.03711L20.0684-7.36328L20.0293-6.80664C19.9902-6.30859 20.1172-5.92773 20.6055-5.44922L21.3672-4.70703C21.8457-4.22852 22.4609-4.19922 22.9297-4.66797L25.8398-7.58789C26.3086-8.05664 26.2891-8.65234 25.8105-9.13086L25.0391-9.89258C24.5605-10.3711 24.1895-10.5273 23.7109-10.4883L23.1348-10.4395L22.4902-11.0742L22.7344-12.1973C22.8613-12.7637 22.7051-13.2031 22.1191-13.7891L19.9219-15.9766C16.582-19.2969 12.1484-19.2188 9.25781-16.3281ZM10.752-15.957C13.1836-17.7344 16.4746-17.4316 18.7012-15.2051L21.1328-12.793C21.3672-12.5586 21.4062-12.373 21.3379-12.0312L21.0156-10.5469L22.5195-9.0625L23.5059-9.12109C23.7598-9.13086 23.8379-9.11133 24.0332-8.91602L24.6094-8.33984L22.168-5.89844L21.5918-6.47461C21.3965-6.66992 21.3672-6.74805 21.377-7.01172L21.4453-7.98828L19.9512-9.47266L18.4277-9.21875C18.1055-9.15039 17.959-9.17969 17.7148-9.41406L15.7129-11.416C15.459-11.6504 15.4297-11.8164 15.5859-12.1875L16.4648-14.2773C14.9023-15.7324 12.8711-16.3574 10.8398-15.7617C10.6836-15.7227 10.625-15.8496 10.752-15.957Z"/>
  </g>
  <text style="stroke:none;fill:black;font-family:sans-serif;font-size:13;font-weight:bold;" transform="matrix(1 0 0 1 1289 1953)">Exporting</text>
  <text style="stroke:none;fill:black;font-family:sans-serif;font-size:13;" transform="matrix(1 0 0 1 1289 1971)">Symbols should be outlined when exporting to ensure the</text>
  <text style="stroke:none;fill:black;font-family:sans-serif;font-size:13;" transform="matrix(1 0 0 1 1289 1989)">design is preserved when submitting to Xcode.</text>
  <text id="template-version" style="stroke:none;fill:black;font-family:sans-serif;font-size:13;text-anchor:end;" transform="matrix(1 0 0 1 3036 1933)">Template v.4.0</text>
  <text style="stroke:none;fill:black;font-family:sans-serif;font-size:13;text-anchor:end;" transform="matrix(1 0 0 1 3036 1951)">Requires Xcode 14 or greater</text>
  <text id="descriptive-name" style="stroke:none;fill:black;font-family:sans-serif;font-size:13;text-anchor:end;" transform="matrix(1 0 0 1 3036 1969)">Generated from custom.triangle</text>
  <text style="stroke:none;fill:black;font-family:sans-serif;font-size:13;text-anchor:end;" transform="matrix(1 0 0 1 3036 1987)">Typeset at 100 points</text>
  <text style="stroke:none;fill:black;font-family:sans-serif;font-size:13;" transform="matrix(1 0 0 1 263 726)">Small</text>
  <text style="stroke:none;fill:black;font-family:sans-serif;font-size:13;" transform="matrix(1 0 0 1 263 1156)">Medium</text>
  <text style="stroke:none;fill:black;font-family:sans-serif;font-size:13;" transform="matrix(1 0 0 1 263 1586)">Large</text>
 </g>
 <g id="Guides">
  <g id="H-reference" style="fill:#27AAE1;stroke:none;" transform="matrix(1 0 0 1 339 696)">
   <path d="M0.993654 0L3.63775 0L29.3281-67.1323L30.0303-67.1323L30.0303-70.459L28.1226-70.459ZM11.6885-24.4799L46.9815-24.4799L46.2315-26.7285L12.4385-26.7285ZM55.1196 0L57.7637 0L30.6382-70.459L29.4326-70.459L29.4326-67.1323Z"/>
  </g>
  <line id="Baseline-S" style="fill:none;stroke:#27AAE1;opacity:1;stroke-width:0.5;" x1="263" x2="3036" y1="696" y2="696"/>
  <line id="Capline-S" style="fill:none;stroke:#27AAE1;opacity:1;stroke-width:0.5;" x1="263" x2="3036" y1="625.541" y2="625.541"/>
  <g id="H-reference" style="fill:#27AAE1;stroke:none;" transform="matrix(1 0 0 1 339 1126)">
   <path d="M0.993654 0L3.63775 0L29.3281-67.1323L30.0303-67.1323L30.0303-70.459L28.1226-70.459ZM11.6885-24.4799L46.9815-24.4799L46.2315-26.7285L12.4385-26.7285ZM55.1196 0L57.7637 0L30.6382-70.459L29.4326-70.459L29.4326-67.1323Z"/>
  </g>
  <line id="Baseline-M" style="fill:none;stroke:#27AAE1;opacity:1;stroke-width:0.5;" x1="263" x2="3036" y1="1126" y2="1126"/>
  <line id="Capline-M" style="fill:none;stroke:#27AAE1;opacity:1;stroke-width:0.5;" x1="263" x2="3036" y1="1055.54" y2="1055.54"/>
  <g id="H-reference" style="fill:#27AAE1;stroke:none;" transform="matrix(1 0 0 1 339 1556)">
   <path d="M0.993654 0L3.63775 0L29.3281-67.1323L30.0303-67.1323L30.0303-70.459L28.1226-70.459ZM11.6885-24.4799L46.9815-24.4799L46.2315-26.7285L12.4385-26.7285ZM55.1196 0L57.7637 0L30.6382-70.459L29.4326-70.459L29.4326-67.1323Z"/>
  </g>
  <line id="Baseline-L" style="fill:none;stroke:#27AAE1;opacity:1;stroke-width:0.5;" x1="263" x2="3036" y1="1556" y2="1556"/>
  <line id="Capline-L" style="fill:none;stroke:#27AAE1;opacity:1;stroke-width:0.5;" x1="263" x2="3036" y1="1485.54" y2="1485.54"/>
  <line id="left-margin-Regular-M" style="fill:none;stroke:#00AEEF;stroke-width:0.5;opacity:1.0;" x1="1388.71" x2="1388.71" y1="1030.79" y2="1150.12"/>
  <line id="right-margin-Regular-M" style="fill:none;stroke:#00AEEF;stroke-width:0.5;opacity:1.0;" x1="1510.98" x2="1510.98" y1="1030.79" y2="1150.12"/>
 </g>
 <g id="Symbols">
  <g id="Black-L" transform="matrix(1 0 0 1 2852.02 1556)">
   <path d="M33.2042 28.2344L129.608 28.2344C141.621 28.2344 149.887 18.7102 149.887 7.84507C149.887 4.4643 149.063 0.981032 147.221-2.24254L98.9414-86.6131C94.9733-93.4747 88.3076-96.8243 81.4068-96.8243C74.5046-96.8243 67.643-93.3579 63.8125-86.6131L15.533-2.18405C13.7286 1.00184 12.8672 4.4643 12.8672 7.84507C12.8672 18.7102 21.1331 28.2344 33.2042 28.2344ZM37.7234 9.48401C35.3204 9.48401 33.7267 7.53301 33.7267 5.33239C33.7267 4.73629 33.8571 3.84039 34.1972 3.18463L77.9573-74.0787C78.6475-75.3114 80.0959-75.8325 81.4068-75.8325C82.6955-75.8325 84.0648-75.2531 84.7757-74.0203L128.594 3.3223C128.934 3.97811 129.065 4.79466 129.065 5.33239C129.065 7.53301 127.471 9.48401 125.068 9.48401Z"/>
  </g>
  <g id="Heavy-L" transform="matrix(1 0 0 1 2555.93 1556)">
   <path d="M32.374 27.2694L129.192 27.2694C140.843 27.2694 148.654 18.2647 148.654 7.74605C148.654 4.47501 147.825 1.08771 146.039-2.03937L97.5631-86.7169C93.7765-93.2696 87.3877-96.4891 80.7858-96.4891C74.1783-96.4891 67.6255-93.1805 63.9582-86.7169L15.4828-1.99469C13.7104 1.11788 12.8672 4.47501 12.8672 7.74605C12.8672 18.2647 20.6781 27.2694 32.374 27.2694ZM35.8457 10.752C32.9247 10.752 31.0482 8.42712 31.0482 5.82166C31.0482 5.04904 31.2282 3.99041 31.6632 3.16751L76.6668-76.085C77.5164-77.5908 79.2108-78.2403 80.7858-78.2403C82.3249-78.2403 83.9446-77.5462 84.8243-76.0404L129.873 3.28696C130.308 4.10992 130.488 5.09364 130.488 5.82166C130.488 8.42712 128.611 10.752 125.69 10.752Z"/>
  </g>
  <g id="Bold-L" transform="matrix(1 0 0 1 2259.97 1556)">
   <path d="M31.2848 26.123L128.767 26.123C139.92 26.123 147.155 17.7637 147.155 7.74235C147.155 4.60209 146.326 1.33017 144.601-1.68897L95.8125-86.9295C92.2637-93.0831 86.2355-96.1114 80.0323-96.1114C73.8158-96.1114 67.6621-93.0248 64.2096-86.9295L15.4214-1.65973C13.6874 1.36813 12.8672 4.60209 12.8672 7.74235C12.8672 17.7637 20.1022 26.123 31.2848 26.123ZM33.5846 12.3793C29.9959 12.3793 27.7735 9.59326 27.7735 6.47338C27.7735 5.46313 28.0224 4.18231 28.5876 3.12963L75.076-78.5596C76.1253-80.4109 78.127-81.2068 80.0323-81.2068C81.8863-81.2068 83.8208-80.3817 84.9081-78.5304L131.426 3.22602C131.991 4.27878 132.24 5.49232 132.24 6.47338C132.24 9.59326 130.017 12.3793 126.429 12.3793Z"/>
  </g>
  <g id="Semibold-L" transform="matrix(1 0 0 1 1963.77 1556)">
   <path d="M30.5339 25.3327L128.473 25.3327C139.283 25.3327 146.121 17.4183 146.121 7.7398C146.121 4.6897 145.292 1.49733 143.61-1.44741L94.6057-87.076C91.2208-92.9545 85.4412-95.851 79.5128-95.851C73.566-95.851 67.6873-92.9174 64.3829-87.076L15.379-1.42881C13.6715 1.54066 12.8672 4.6897 12.8672 7.7398C12.8672 17.4183 19.7052 25.3327 30.5339 25.3327ZM32.0258 13.5011C27.9768 13.5011 25.5159 10.3972 25.5159 6.92267C25.5159 5.74861 25.8124 4.31461 26.4673 3.10351L73.9793-80.2656C75.1663-82.3551 77.3798-83.2519 79.5128-83.2519C81.5839-83.2519 83.7355-82.3365 84.9659-80.247L132.496 3.18401C133.151 4.39519 133.448 5.76717 133.448 6.92267C133.448 10.3972 130.987 13.5011 126.938 13.5011Z"/>
  </g>
  <g id="Medium-L" transform="matrix(1 0 0 1 1667.45 1556)">
   <path d="M29.9645 24.7334L128.251 24.7334C138.801 24.7334 145.338 17.1564 145.338 7.73787C145.338 4.75613 144.509 1.62407 142.858-1.26425L93.6906-87.1871C90.43-92.8571 84.8389-95.6536 79.1189-95.6536C73.3765-95.6536 67.7065-92.836 64.5143-87.1871L15.3468-1.25372C13.6594 1.67148 12.8672 4.75613 12.8672 7.73787C12.8672 17.1564 19.4041 24.7334 29.9645 24.7334ZM30.8439 14.3517C26.4459 14.3517 23.8042 11.0068 23.8042 7.26334C23.8042 5.96506 24.1366 4.41492 24.8597 3.08371L73.1477-81.5591C74.4392-83.8293 76.8132-84.8026 79.1189-84.8026C81.3546-84.8026 83.6709-83.8187 85.0097-81.5486L133.308 3.15215C134.031 4.48346 134.364 5.97557 134.364 7.26334C134.364 11.0068 131.722 14.3517 127.324 14.3517Z"/>
  </g>
  <g id="Regular-L" transform="matrix(1 0 0 1 1371.25 1556)">
   <path d="M29.2218 23.9517L127.961 23.9517C138.171 23.9517 144.316 16.8148 144.316 7.73535C144.316 4.84277 143.486 1.78938 141.878-1.02534L92.497-87.332C89.3985-92.7299 84.0533-95.3961 78.6052-95.3961C73.1294-95.3961 67.7314-92.7299 64.6856-87.332L15.3049-1.02534C13.6437 1.84211 12.8672 4.84277 12.8672 7.73535C12.8672 16.8148 19.0114 23.9517 29.2218 23.9517ZM29.3022 15.4612C24.4489 15.4612 21.5714 11.8018 21.5714 7.70769C21.5714 6.2474 21.9509 4.54577 22.7627 3.05788L72.0631-83.2463C73.4907-85.7521 76.0743-86.8252 78.6052-86.8252C81.0556-86.8252 83.5865-85.7521 85.0668-83.2463L134.367 3.1106C135.179 4.59859 135.559 6.2474 135.559 7.70769C135.559 11.8018 132.681 15.4612 127.828 15.4612Z"/>
  </g>
  <g id="Light-L" transform="matrix(1 0 0 1 1074.97 1556)">
   <path d="M28.0767 23.4746L128.247 23.4746C137.789 23.4746 143.457 16.7957 143.457 8.49876C143.457 5.66344 142.666 2.66733 141.057-0.147395L91.0083-88.0191C88.158-93.0353 83.1754-95.377 78.1853-95.377C73.1485-95.377 68.1322-93.0353 65.3155-88.0191L15.2667-0.147395C13.6246 2.70097 12.8672 5.66344 12.8672 8.49876C12.8672 16.7957 18.5343 23.4746 28.0767 23.4746ZM28.1571 16.9498C22.674 16.9498 19.5865 12.9851 19.5865 8.45202C19.5865 6.70544 20.0615 4.71754 21.045 2.92427L71.0134-84.8876C72.5937-87.6797 75.4063-88.7718 78.1853-88.7718C80.8838-88.7718 83.6628-87.6797 85.2768-84.8876L135.245 2.95791C136.229 4.75124 136.704 6.70544 136.704 8.45202C136.704 12.9851 133.616 16.9498 128.133 16.9498Z"/>
  </g>
  <g id="Thin-L" transform="matrix(1 0 0 1 778.828 1556)">
   <path d="M26.5622 22.8435L128.626 22.8435C137.285 22.8435 142.321 16.7704 142.321 9.50843C142.321 6.74885 141.58 3.82848 139.972 1.01376L89.0395-88.9277C86.5173-93.4392 82.0143-95.3518 77.63-95.3518C73.1737-95.3518 68.6623-93.4392 66.1484-88.9277L15.2162 1.01376C13.5994 3.83688 12.8672 6.74885 12.8672 9.50843C12.8672 16.7704 17.9032 22.8435 26.5622 22.8435ZM26.6426 18.9187C20.3265 18.9187 16.9613 14.5501 16.9613 9.43645C16.9613 7.31124 17.5626 4.94472 18.7732 2.74756L69.6251-87.0584C71.4073-90.2291 74.5228-91.3464 77.63-91.3464C80.6566-91.3464 83.7638-90.2291 85.5545-87.0584L136.406 2.75597C137.617 4.95313 138.218 7.31124 138.218 9.43645C138.218 14.5501 134.853 18.9187 128.537 18.9187Z"/>
  </g>
  <g id="Ultralight-L" transform="matrix(1 0 0 1 482.408 1556)">
   <path d="M25.7865 22.5203L128.82 22.5203C137.026 22.5203 141.739 16.7575 141.739 10.0256C141.739 7.30478 141.024 4.42321 139.416 1.60849L88.031-89.3932C85.677-93.646 81.4196-95.3388 77.3456-95.3388C73.1867-95.3388 68.9338-93.646 66.5751-89.3932L15.1904 1.60849C13.5865 4.41869 12.8672 7.30478 12.8672 10.0256C12.8672 16.7575 17.58 22.5203 25.7865 22.5203ZM25.8669 19.9271C19.1242 19.9271 15.6167 15.3517 15.6167 9.94067C15.6167 7.62152 16.2827 5.06108 17.6096 2.65705L68.9141-88.1703C70.7996-91.5349 74.0704-92.6651 77.3456-92.6651C80.5402-92.6651 83.8155-91.5349 85.6967-88.1703L137.001 2.65253C138.328 5.05654 138.994 7.62152 138.994 9.94067C138.994 15.3517 135.486 19.9271 128.744 19.9271Z"/>
  </g>
  <g id="Black-M" transform="matrix(1 0 0 1 2869.88 1126)">
   <path d="M26.283 14.7034L100.809 14.7034C110.336 14.7034 117.066 6.94016 117.066-1.6693C117.066-4.37506 116.438-7.14841 114.963-9.72878L77.6369-75.0423C74.4403-80.572 69.0873-83.2351 63.546-83.2351C58.0049-83.2351 52.4752-80.4579 49.3983-75.0423L12.0721-9.6716C10.6492-7.14293 9.96875-4.37506 9.96875-1.6693C9.96875 6.94016 16.6991 14.7034 26.283 14.7034ZM30.6845-1.47614C29.1826-1.47614 28.1626-2.70769 28.1626-4.12416C28.1626-4.47305 28.2339-5.06607 28.4391-5.47185L61.3637-63.8257C61.7821-64.5849 62.7239-64.8808 63.546-64.8808C64.3629-64.8808 65.2421-64.5278 65.666-63.7686L98.6478-5.35212C98.8529-4.94632 98.9243-4.41599 98.9243-4.12416C98.9243-2.70769 97.9042-1.47614 96.4022-1.47614Z"/>
  </g>
  <g id="Heavy-M" transform="matrix(1 0 0 1 2573.73 1126)">
   <path d="M25.5771 13.804L100.376 13.804C109.611 13.804 115.941 6.50641 115.941-1.83652C115.941-4.4403 115.304-7.12512 113.883-9.61116L76.4269-75.0805C73.3848-80.3435 68.269-82.9092 62.9777-82.9092C57.6841-82.9092 52.4211-80.2563 49.4826-75.0805L12.0265-9.56747C10.6331-7.10872 9.96875-4.4403 9.96875-1.83652C9.96875 6.50641 16.2984 13.804 25.5771 13.804ZM28.9546-0.373903C27.0044-0.373903 25.7273-1.9428 25.7273-3.71452C25.7273-4.20957 25.8383-4.93526 26.1204-5.47626L60.199-65.6356C60.7591-66.6353 61.9202-67.055 62.9777-67.055C64.0165-67.055 65.1176-66.5917 65.6941-65.592L99.8164-5.37258C100.098-4.83155 100.21-4.16598 100.21-3.71452C100.21-1.9428 98.9323-0.373903 96.9821-0.373903Z"/>
  </g>
  <g id="Bold-M" transform="matrix(1 0 0 1 2277.65 1126)">
   <path d="M24.7875 12.798L99.8914 12.798C108.8 12.798 114.682 6.0212 114.682-2.02358C114.682-4.51327 114.035-7.09906 112.675-9.47959L75.0733-75.1232C72.204-80.0877 67.3536-82.5445 62.342-82.5445C57.3253-82.5445 52.3606-80.0307 49.577-75.1232L11.9756-9.451C10.6152-7.07046 9.96875-4.51327 9.96875-2.02358C9.96875 6.0212 15.85 12.798 24.7875 12.798ZM27.0194 0.859112C24.5678 0.859112 23.003-1.08716 23.003-3.25628C23.003-3.91484 23.1584-4.78894 23.5266-5.48119L58.8961-67.6602C59.6148-68.9289 61.0212-69.4872 62.342-69.4872C63.629-69.4872 64.9783-68.9004 65.7256-67.6317L101.124-5.39546C101.492-4.70316 101.647-3.8863 101.647-3.25628C101.647-1.08716 100.082 0.859112 97.6309 0.859112Z"/>
  </g>
  <g id="Semibold-M" transform="matrix(1 0 0 1 1981.37 1126)">
   <path d="M24.2431 12.1044L99.5573 12.1044C108.241 12.1044 113.813 5.6867 113.813-2.15253C113.813-4.56358 113.16-7.0811 111.842-9.38888L74.1401-75.1526C71.39-79.9115 66.7225-82.2932 61.9038-82.2932C57.0778-82.2932 52.3189-79.8752 49.6421-75.1526L11.9405-9.3707C10.6028-7.04408 9.96875-4.56358 9.96875-2.15253C9.96875 5.6867 15.5409 12.1044 24.2431 12.1044ZM25.6852 1.70914C22.888 1.70914 21.1249-0.497288 21.1249-2.94038C21.1249-3.71164 21.3109-4.68807 21.7384-5.48458L57.9979-69.056C58.8259-70.5102 60.4014-71.1639 61.9038-71.1639C63.3618-71.1639 64.8823-70.492 65.7473-69.0379L102.025-5.41124C102.452-4.61465 102.638-3.6935 102.638-2.94038C102.638-0.497288 100.875 1.70914 98.0781 1.70914Z"/>
  </g>
  <g id="Medium-M" transform="matrix(1 0 0 1 1684.99 1126)">
   <path d="M23.8303 11.5785L99.304 11.5785C107.817 11.5785 113.155 5.43307 113.155-2.25032C113.155-4.60173 112.497-7.06748 111.21-9.3201L73.4325-75.1749C70.7728-79.7778 66.244-82.1026 61.5714-82.1026C56.8902-82.1026 52.2873-79.7572 49.6914-75.1749L11.9138-9.30981C10.5935-7.02408 9.96875-4.60173 9.96875-2.25032C9.96875 5.43307 15.3066 11.5785 23.8303 11.5785ZM24.6737 2.35368C21.6144 2.35368 19.7008-0.050023 19.7008-2.70084C19.7008-3.55758 19.9101-4.61158 20.3825-5.48716L57.3168-70.1144C58.2277-71.7091 59.9315-72.4352 61.5714-72.4352C63.1592-72.4352 64.8094-71.6989 65.7637-70.1041L102.708-5.4232C103.181-4.54753 103.39-3.5473 103.39-2.70084C103.39-0.050023 101.476 2.35368 98.4172 2.35368Z"/>
  </g>
  <g id="Regular-M" transform="matrix(1 0 0 1 1388.71 1126)">
   <path d="M23.2919 10.8926L98.9735 10.8926C107.265 10.8926 112.297 5.10224 112.297-2.37786C112.297-4.65149 111.632-7.04971 110.386-9.2304L72.5096-75.204C69.9677-79.6034 65.6199-81.8539 61.138-81.8539C56.6456-81.8539 52.246-79.6034 49.7558-75.204L11.8791-9.2304C10.5812-6.99799 9.96875-4.65149 9.96875-2.37786C9.96875 5.10224 15.0009 10.8926 23.2919 10.8926ZM23.3542 3.19437C19.9531 3.19437 17.8434 0.533367 17.8434-2.38841C17.8434-3.35662 18.083-4.51182 18.614-5.49052L56.4284-71.4948C57.4475-73.273 59.3186-74.0935 61.138-74.0935C62.895-74.0935 64.7145-73.273 65.7852-71.4948L103.6-5.4388C104.131-4.45999 104.37-3.35662 104.37-2.38841C104.37 0.533367 102.261 3.19437 98.8595 3.19437Z"/>
  </g>
  <g id="Light-M" transform="matrix(1 0 0 1 1092.39 1126)">
   <path d="M22.2653 10.4648L99.2302 10.4648C106.922 10.4648 111.527 5.08513 111.527-1.69342C111.527-3.91571 110.897-6.26259 109.651-8.44327L71.175-75.82C68.8555-79.8772 64.8328-81.8368 60.7616-81.8368C56.6627-81.8368 52.6053-79.8772 50.3204-75.82L11.8449-8.44327C10.5641-6.22798 9.96875-3.91571 9.96875-1.69342C9.96875 5.08513 14.5731 10.4648 22.2653 10.4648ZM22.3275 4.52902C18.3618 4.52902 16.0638 1.59424 16.0638-1.72108C16.0638-2.94596 16.389-4.35781 17.074-5.61031L55.4874-72.9664C56.6433-75.0012 58.7197-75.8388 60.7616-75.8388C62.741-75.8388 64.7829-75.0012 65.9734-72.9664L104.387-5.5757C105.072-4.32313 105.397-2.94596 105.397-1.72108C105.397 1.59424 103.099 4.52902 99.1332 4.52902Z"/>
  </g>
  <g id="Thin-M" transform="matrix(1 0 0 1 796.184 1126)">
   <path d="M20.9074 9.89903L99.5697 9.89903C106.47 9.89903 110.508 5.0625 110.508-0.788198C110.508-2.94259 109.924-5.22156 108.677-7.40224L69.4098-76.6346C67.3845-80.2393 63.7918-81.8142 60.2637-81.8142C56.6853-81.8142 53.0806-80.2393 51.0672-76.6346L11.7996-7.40224C10.5415-5.20957 9.96875-2.94259 9.96875-0.788198C9.96875 5.0625 14.0073 9.89903 20.9074 9.89903ZM20.9697 6.29421C16.2571 6.29421 13.7102 2.99734 13.7102-0.83849C13.7102-2.40283 14.1486-4.15413 15.0373-5.76874L54.2427-74.9126C55.5796-77.2869 57.9276-78.1471 60.2637-78.1471C62.5373-78.1471 64.8734-77.2869 66.2224-74.9126L105.428-5.75675C106.316-4.14213 106.755-2.40283 106.755-0.83849C106.755 2.99734 104.208 6.29421 99.4953 6.29421Z"/>
  </g>
  <g id="Ultralight-M" transform="matrix(1 0 0 1 499.733 1126)">
   <path d="M20.212 9.60925L99.7436 9.60925C106.238 9.60925 109.987 5.05091 109.987-0.324547C109.987-2.44417 109.425-4.68835 108.179-6.86903L68.5056-77.0519C66.6311-80.4248 63.2586-81.8026 60.0087-81.8026C56.6969-81.8026 53.324-80.4248 51.4497-77.0519L11.7764-6.86903C10.5299-4.68795 9.96875-2.44417 9.96875-0.324547C9.96875 5.05091 13.7175 9.60925 20.212 9.60925ZM20.2742 7.19833C15.1791 7.19833 12.5047 3.71599 12.5047-0.386431C12.5047-2.12465 13.0011-4.04981 13.9941-5.84989L53.6052-75.9094C55.0348-78.4576 57.522-79.3294 60.0087-79.3294C62.433-79.3294 64.9198-78.4576 66.3499-75.9094L105.961-5.84949C106.954-4.04942 107.45-2.12465 107.45-0.386431C107.45 3.71599 104.776 7.19833 99.6808 7.19833Z"/>
  </g>
  <g id="Black-S" transform="matrix(1 0 0 1 2883.47 696)">
   <path d="M20.752 4.15039L79.1504 4.15039C86.6699 4.15039 92.041-2.05078 92.041-8.83789C92.041-10.9863 91.5527-13.1836 90.3809-15.2344L61.1328-66.4551C58.5938-70.8496 54.3457-72.9492 49.9512-72.9492C45.5566-72.9492 41.1621-70.752 38.7207-66.4551L9.47266-15.1855C8.34961-13.1836 7.8125-10.9863 7.8125-8.83789C7.8125-2.05078 13.1836 4.15039 20.752 4.15039ZM24.5117-9.0332C23.4375-9.0332 22.7051-9.91211 22.7051-10.9375C22.7051-11.1816 22.7539-11.6211 22.9004-11.9141L48.3887-57.1777C48.6816-57.7148 49.3652-57.9102 49.9512-57.9102C50.5371-57.9102 51.1719-57.666 51.4648-57.1289L77.002-11.8164C77.1484-11.5234 77.1973-11.1328 77.1973-10.9375C77.1973-9.91211 76.4648-9.0332 75.3906-9.0332Z"/>
  </g>
  <g id="Heavy-S" transform="matrix(1 0 0 1 2587.19 696)">
   <path d="M20.2795 3.43587L78.747 3.43587C86.0937 3.43587 91.1767-2.41956 91.1767-9.06838C91.1767-11.1361 90.6768-13.2643 89.5511-15.2344L60.2685-66.409C57.8332-70.6191 53.7464-72.6726 49.5133-72.6726C45.28-72.6726 41.0699-70.5445 38.7207-66.409L9.43809-15.197C8.33809-13.2528 7.8125-11.1361 7.8125-9.06838C7.8125-2.41956 12.8955 3.43587 20.2795 3.43587ZM23.1633-8.26106C21.778-8.26106 20.8497-9.39351 20.8497-10.6724C20.8497-11.0087 20.9215-11.5289 21.1141-11.9026L47.5128-58.5376C47.9095-59.2476 48.7544-59.5467 49.5133-59.5467C50.2605-59.5467 51.0567-59.2103 51.4648-58.5003L77.9009-11.8164C78.0934-11.4427 78.1653-10.9715 78.1653-10.6724C78.1653-9.39351 77.2369-8.26106 75.8516-8.26106Z"/>
  </g>
  <g id="Bold-S" transform="matrix(1 0 0 1 2290.97 696)">
   <path d="M19.751 2.63672L78.2959 2.63672C85.4492 2.63672 90.21-2.83203 90.21-9.32617C90.21-11.3037 89.6973-13.3545 88.6231-15.2344L59.3017-66.3575C56.9825-70.3613 53.0761-72.3632 49.0235-72.3632C44.9707-72.3632 40.9668-70.3125 38.7207-66.3575L9.39941-15.21C8.3252-13.3301 7.8125-11.3037 7.8125-9.32617C7.8125-2.83203 12.5732 2.63672 19.751 2.63672ZM21.6553-7.39746C19.9218-7.39746 18.7745-8.81347 18.7745-10.376C18.7745-10.8154 18.8721-11.4258 19.1162-11.8896L46.5332-60.0586C47.0459-60.9619 48.0713-61.377 49.0235-61.377C49.9511-61.377 50.9277-60.9375 51.4648-60.0342L78.9062-11.8164C79.1504-11.3525 79.248-10.791 79.248-10.376C79.248-8.81347 78.1006-7.39746 76.3672-7.39746Z"/>
  </g>
  <g id="Semibold-S" transform="matrix(1 0 0 1 1994.59 696)">
   <path d="M19.3866 2.08574L77.9849 2.08574C85.0049 2.08574 89.5434-3.11641 89.5434-9.5039C89.5434-11.4192 89.0219-13.4167 87.9832-15.2344L58.6352-66.3219C56.3959-70.1836 52.614-72.15 48.6857-72.15C44.7574-72.15 40.8957-70.1525 38.7207-66.3219L9.37275-15.2188C8.31631-13.3834 7.8125-11.4192 7.8125-9.5039C7.8125-3.11641 12.3511 2.08574 19.3866 2.08574ZM20.6155-6.80205C18.6422-6.80205 17.3437-8.41357 17.3437-10.1716C17.3437-10.6821 17.4591-11.3547 17.7388-11.8808L45.8578-61.1072C46.4505-62.1438 47.6003-62.6389 48.6857-62.6389C49.7379-62.6389 50.8389-62.1283 51.4648-61.0917L79.5994-11.8164C79.8791-11.2903 79.9945-10.6666 79.9945-10.1716C79.9945-8.41357 78.696-6.80205 76.7227-6.80205Z"/>
  </g>
  <g id="Medium-S" transform="matrix(1 0 0 1 1698.13 696)">
   <path d="M19.1104 1.66797L77.749 1.66797C84.668 1.66797 89.0381-3.33203 89.0381-9.63867C89.0381-11.5068 88.5098-13.4639 87.498-15.2344L58.1299-66.295C55.9512-70.0488 52.2636-71.9882 48.4297-71.9882C44.5957-71.9882 40.8418-70.0312 38.7207-66.295L9.35254-15.2256C8.30957-13.4239 7.8125-11.5068 7.8125-9.63867C7.8125-3.33203 12.1826 1.66797 19.1104 1.66797ZM19.8271-6.35059C17.6718-6.35059 16.2588-8.11035 16.2588-10.0166C16.2588-10.581 16.3877-11.3008 16.6943-11.874L45.3457-61.9024C45.9991-63.04 47.2431-63.5958 48.4297-63.5958C49.5761-63.5958 50.7715-63.0313 51.4648-61.8936L80.125-11.8164C80.4316-11.2431 80.5605-10.5722 80.5605-10.0166C80.5605-8.11035 79.1474-6.35059 76.9922-6.35059Z"/>
  </g>
  <g id="Regular-S" transform="matrix(1 0 0 1 1401.75 696)">
   <path d="M18.75 1.12305L77.4414 1.12305C84.2285 1.12305 88.3789-3.61328 88.3789-9.81445C88.3789-11.6211 87.8418-13.5254 86.8652-15.2344L57.4707-66.2598C55.3711-69.873 51.8066-71.7773 48.0957-71.7773C44.3848-71.7773 40.7715-69.873 38.7207-66.2598L9.32617-15.2344C8.30078-13.4766 7.8125-11.6211 7.8125-9.81445C7.8125-3.61328 11.9629 1.12305 18.75 1.12305ZM18.7988-5.76172C16.4062-5.76172 14.8438-7.71484 14.8438-9.81445C14.8438-10.4492 14.9902-11.2305 15.332-11.8652L44.6777-62.9395C45.4102-64.209 46.7773-64.8438 48.0957-64.8438C49.3652-64.8438 50.6836-64.209 51.4648-62.9395L80.8105-11.8164C81.1523-11.1816 81.2988-10.4492 81.2988-9.81445C81.2988-7.71484 79.7363-5.76172 77.3438-5.76172Z"/>
  </g>
  <g id="Light-S" transform="matrix(1 0 0 1 1105.38 696)">
   <path d="M17.8418 0.744634L77.6685 0.744634C83.9258 0.744634 87.6978-3.62842 87.6978-9.20899C87.6978-10.9702 87.1909-12.8291 86.2143-14.5381L56.29-66.8047C54.3872-70.1152 51.1103-71.7622 47.7627-71.7622C44.3999-71.7622 41.0894-70.1152 39.2202-66.8047L9.2959-14.5381C8.28564-12.7954 7.8125-10.9702 7.8125-9.20899C7.8125-3.62842 11.5845 0.744634 17.8418 0.744634ZM17.8906-4.58106C14.9985-4.58106 13.2696-6.77637 13.2696-9.22412C13.2696-10.0859 13.4917-11.0943 13.9697-11.9712L43.8452-64.2412C44.6988-65.7378 46.2475-66.3877 47.7627-66.3877C49.229-66.3877 50.7441-65.7378 51.6313-64.2412L81.5068-11.9375C81.9848-11.0605 82.207-10.0859 82.207-9.22412C82.207-6.77637 80.478-4.58106 77.586-4.58106Z"/>
  </g>
  <g id="Thin-S" transform="matrix(1 0 0 1 809.118 696)">
   <path d="M16.6406 0.244148L77.9688 0.244148C83.5254 0.244148 86.7969-3.64844 86.7969-8.40821C86.7969-10.1094 86.3301-11.9082 85.3535-13.6172L54.7285-67.5254C53.086-70.4355 50.1895-71.7422 47.3223-71.7422C44.4199-71.7422 41.5098-70.4355 39.8808-67.5254L9.25586-13.6172C8.26562-11.8945 7.8125-10.1094 7.8125-8.40821C7.8125-3.64844 11.084 0.244148 16.6406 0.244148ZM16.6894-3.01955C13.1367-3.01955 11.1875-5.53518 11.1875-8.44337C11.1875-9.60547 11.5098-10.9141 12.1679-12.1113L42.7442-65.9629C43.7578-67.7598 45.5469-68.4296 47.3223-68.4296C49.0488-68.4296 50.8242-67.7598 51.8516-65.9629L82.4277-12.0977C83.0859-10.9004 83.4082-9.60547 83.4082-8.44337C83.4082-5.53518 81.459-3.01955 77.9063-3.01955Z"/>
  </g>
  <g id="Ultralight-S" transform="matrix(1 0 0 1 512.637 696)">
   <path d="M16.0254-0.0121981L78.1226-0.0121981C83.3203-0.0121981 86.3355-3.65869 86.3355-7.99806C86.3355-9.66847 85.8892-11.4365 84.9126-13.1455L53.9287-67.8945C52.4195-70.5996 49.7178-71.7319 47.0967-71.7319C44.4302-71.7319 41.7251-70.5996 40.2192-67.8945L9.23535-13.1455C8.25537-11.4331 7.8125-9.66847 7.8125-7.99806C7.8125-3.65869 10.8276-0.0121981 16.0254-0.0121981ZM16.0742-2.21975C12.1831-2.21975 10.1211-4.89944 10.1211-8.04347C10.1211-9.35938 10.4947-10.8218 11.2451-12.1831L42.1802-66.8447C43.2759-68.7954 45.188-69.4755 47.0967-69.4755C48.9565-69.4755 50.8652-68.7954 51.9644-66.8447L82.8994-12.1797C83.6499-10.8184 84.0234-9.35938 84.0234-8.04347C84.0234-4.89944 81.9614-2.21975 78.0703-2.21975Z"/>
  </g>
 </g>
</svg>
